<svg xmlns="http://www.w3.org/2000/svg" width="800" height="800" viewBox="0 0 800 800">
  <defs>
    <radialGradient id="bg" cx="50%" cy="40%" r="80%">
      <stop offset="0%" stop-color="#232228"/>
      <stop offset="100%" stop-color="#131317"/>
    </radialGradient>
    <linearGradient id="flame" x1="0%" y1="100%" x2="0%" y2="0%">
      <stop offset="0%" stop-color="#ff570b"/>
      <stop offset="55%" stop-color="#ffb703"/>
      <stop offset="100%" stop-color="#ffdf8f"/>
    </linearGradient>
  </defs>
  <rect width="800" height="800" fill="url(#bg)"/>
  <circle cx="400" cy="400" r="190" fill="#1b1b1f" stroke="#3a3a40" stroke-width="6"/>
  <path d="M400 250 C 440 310, 500 330, 505 410 C 509 470, 470 520, 470 520 L 330 520 C 330 520, 291 470, 295 410 C 300 330, 360 310, 400 250 Z" fill="url(#flame)"/>
  <path d="M400 320 C 425 360, 460 375, 462 425 C 464 465, 440 495, 440 495 L 360 495 C 360 495, 336 465, 338 425 C 340 375, 375 360, 400 320 Z" fill="#131317"/>
  <path d="M400 380 C 412 400, 428 408, 429 435 C 430 458, 415 475, 415 475 L 385 475 C 385 475, 370 458, 371 435 C 372 408, 388 400, 400 380 Z" fill="url(#flame)"/>
  <text x="400" y="600" text-anchor="middle" font-family="sans-serif" font-size="44" font-weight="800" letter-spacing="6" fill="#ac897e">FUEGO</text>
</svg>
